{
    "asset": {
        "generator": "COLLADA2GLTF",
        "version": "2.0"
    },
    "scenes": [
        {
            "nodes": [
                0
            ]
        }
    ],
    "scene": 0,
    "nodes": [
        {
            "children": [
                9,
                8,
                7,
                6,
                5,
                4,
                3,
                2,
                1
            ],
            "name": "Y_UP"
        },
        {
            "matrix": [
                -0.039000000804662707,
                -0.7440000176429749,
                0.6670000553131104,
                0.0,
                -0.6360000371932983,
                0.5330000519752502,
                0.5580000281333923,
                0.0,
                -0.7710000276565552,
                -0.4020000100135803,
                -0.49400001764297488,
                0.0,
                -298.1930236816406,
                -155.6060028076172,
                -190.9820098876953,
                1.0
            ],
            "camera": 0,
            "name": "node-camera"
        },
        {
            "mesh": 0,
            "matrix": [
                1.0,
                0.0,
                0.0,
                0.0,
                0.0,
                1.0,
                0.0,
                0.0,
                0.0,
                0.0,
                1.0,
                0.0,
                -58.50800323486328,
                22.566001892089845,
                3.0510001182556154,
                1.0
            ],
            "name": "node-geom7"
        },
        {
            "mesh": 1,
            "matrix": [
                1.0,
                0.0,
                0.0,
                0.0,
                0.0,
                1.0,
                0.0,
                0.0,
                0.0,
                0.0,
                1.0,
                0.0,
                -58.50800323486328,
                22.566001892089845,
                3.0510001182556154,
                1.0
            ],
            "name": "node-geom6"
        },
        {
            "mesh": 2,
            "matrix": [
                1.0,
                0.0,
                0.0,
                0.0,
                0.0,
                1.0,
                0.0,
                0.0,
                0.0,
                0.0,
                1.0,
                0.0,
                -58.50800323486328,
                22.566001892089845,
                3.0510001182556154,
                1.0
            ],
            "name": "node-geom5"
        },
        {
            "mesh": 3,
            "matrix": [
                1.0,
                0.0,
                0.0,
                0.0,
                0.0,
                1.0,
                0.0,
                0.0,
                0.0,
                0.0,
                1.0,
                0.0,
                -58.50800323486328,
                22.566001892089845,
                3.0510001182556154,
                1.0
            ],
            "name": "node-geom4"
        },
        {
            "mesh": 4,
            "matrix": [
                1.0,
                0.0,
                0.0,
                0.0,
                0.0,
                1.0,
                0.0,
                0.0,
                0.0,
                0.0,
                1.0,
                0.0,
                -58.50800323486328,
                22.566001892089845,
                3.0510001182556154,
                1.0
            ],
            "name": "node-geom3"
        },
        {
            "mesh": 5,
            "matrix": [
                1.0,
                0.0,
                0.0,
                0.0,
                0.0,
                1.0,
                0.0,
                0.0,
                0.0,
                0.0,
                1.0,
                0.0,
                -58.50800323486328,
                22.566001892089845,
                3.0510001182556154,
                1.0
            ],
            "name": "node-geom2"
        },
        {
            "mesh": 6,
            "matrix": [
                1.0,
                0.0,
                0.0,
                0.0,
                0.0,
                1.0,
                0.0,
                0.0,
                0.0,
                0.0,
                1.0,
                0.0,
                -58.50800323486328,
                22.566001892089845,
                3.0510001182556154,
                1.0
            ],
            "name": "node-geom1"
        },
        {
            "mesh": 7,
            "matrix": [
                1.0,
                0.0,
                0.0,
                0.0,
                0.0,
                1.0,
                0.0,
                0.0,
                0.0,
                0.0,
                1.0,
                0.0,
                -58.50800323486328,
                22.566001892089845,
                3.0510001182556154,
                1.0
            ],
            "name": "node-geom0"
        }
    ],
    "cameras": [
        {
            "perspective": {
                "aspectRatio": 2.140799999237061,
                "yfov": 0.34906554222106936,
                "zfar": 468.6306762695313,
                "znear": 304.9473876953125
            },
            "type": "perspective",
            "name": "camera"
        }
    ],
    "meshes": [
        {
            "primitives": [
                {
                    "attributes": {
                        "COLOR_0": 1,
                        "NORMAL": 2,
                        "POSITION": 3
                    },
                    "indices": 0,
                    "mode": 4,
                    "material": 0
                }
            ],
            "name": "geom7"
        },
        {
            "primitives": [
                {
                    "attributes": {
                        "COLOR_0": 5,
                        "NORMAL": 6,
                        "POSITION": 7
                    },
                    "indices": 4,
                    "mode": 4,
                    "material": 1
                }
            ],
            "name": "geom6"
        },
        {
            "primitives": [
                {
                    "attributes": {
                        "COLOR_0": 9,
                        "NORMAL": 10,
                        "POSITION": 11
                    },
                    "indices": 8,
                    "mode": 4,
                    "material": 2
                }
            ],
            "name": "geom5"
        },
        {
            "primitives": [
                {
                    "attributes": {
                        "COLOR_0": 13,
                        "NORMAL": 14,
                        "POSITION": 15
                    },
                    "indices": 12,
                    "mode": 4,
                    "material": 3
                }
            ],
            "name": "geom4"
        },
        {
            "primitives": [
                {
                    "attributes": {
                        "COLOR_0": 17,
                        "NORMAL": 18,
                        "POSITION": 19
                    },
                    "indices": 16,
                    "mode": 4,
                    "material": 4
                }
            ],
            "name": "geom3"
        },
        {
            "primitives": [
                {
                    "attributes": {
                        "COLOR_0": 21,
                        "NORMAL": 22,
                        "POSITION": 23
                    },
                    "indices": 20,
                    "mode": 4,
                    "material": 5
                }
            ],
            "name": "geom2"
        },
        {
            "primitives": [
                {
                    "attributes": {
                        "COLOR_0": 25,
                        "NORMAL": 26,
                        "POSITION": 27
                    },
                    "indices": 24,
                    "mode": 4,
                    "material": 6
                }
            ],
            "name": "geom1"
        },
        {
            "primitives": [
                {
                    "attributes": {
                        "COLOR_0": 29,
                        "NORMAL": 30,
                        "POSITION": 31
                    },
                    "indices": 28,
                    "mode": 4,
                    "material": 7
                }
            ],
            "name": "geom0"
        }
    ],
    "accessors": [
        {
            "bufferView": 0,
            "byteOffset": 0,
            "componentType": 5123,
            "count": 15084,
            "max": [
                2896
            ],
            "min": [
                0
            ],
            "type": "SCALAR"
        },
        {
            "bufferView": 1,
            "byteOffset": 0,
            "componentType": 5126,
            "count": 2897,
            "max": [
                0.19999998807907105,
                1.0,
                0.19999998807907105
            ],
            "min": [
                0.19999998807907105,
                1.0,
                0.19999998807907105
            ],
            "type": "VEC3"
        },
        {
            "bufferView": 1,
            "byteOffset": 34764,
            "componentType": 5126,
            "count": 2897,
            "max": [
                1.3151999711990357,
                1.191100001335144,
                0.9989999532699584
            ],
            "min": [
                -1.3151999711990357,
                -1.191100001335144,
                -0.989699959754944
            ],
            "type": "VEC3"
        },
        {
            "bufferView": 1,
            "byteOffset": 69528,
            "componentType": 5126,
            "count": 2897,
            "max": [
                78.22639465332031,
                -20.88969993591309,
                26.156198501586919
            ],
            "min": [
                39.97309875488281,
                -60.56509780883789,
                -54.94469833374024
            ],
            "type": "VEC3"
        },
        {
            "bufferView": 0,
            "byteOffset": 30168,
            "componentType": 5123,
            "count": 39933,
            "max": [
                8256
            ],
            "min": [
                0
            ],
            "type": "SCALAR"
        },
        {
            "bufferView": 1,
            "byteOffset": 104292,
            "componentType": 5126,
            "count": 8257,
            "max": [
                0.19999998807907105,
                1.0,
                0.19999998807907105
            ],
            "min": [
                0.19999998807907105,
                1.0,
                0.19999998807907105
            ],
            "type": "VEC3"
        },
        {
            "bufferView": 1,
            "byteOffset": 203376,
            "componentType": 5126,
            "count": 8257,
            "max": [
                1.3492000102996829,
                1.2934999465942386,
                1.121999979019165
            ],
            "min": [
                -1.3493999242782593,
                -1.2824000120162964,
                -1.121999979019165
            ],
            "type": "VEC3"
        },
        {
            "bufferView": 1,
            "byteOffset": 302460,
            "componentType": 5126,
            "count": 8257,
            "max": [
                77.45199584960938,
                -10.516200065612792,
                20.95349884033203
            ],
            "min": [
                32.10519790649414,
                -57.86559677124024,
                -55.12030029296875
            ],
            "type": "VEC3"
        },
        {
            "bufferView": 0,
            "byteOffset": 110034,
            "componentType": 5123,
            "count": 38766,
            "max": [
                7601
            ],
            "min": [
                0
            ],
            "type": "SCALAR"
        },
        {
            "bufferView": 1,
            "byteOffset": 401544,
            "componentType": 5126,
            "count": 7602,
            "max": [
                0.19999998807907105,
                1.0,
                0.19999998807907105
            ],
            "min": [
                0.19999998807907105,
                1.0,
                0.19999998807907105
            ],
            "type": "VEC3"
        },
        {
            "bufferView": 1,
            "byteOffset": 492768,
            "componentType": 5126,
            "count": 7602,
            "max": [
                1.3493999242782593,
                1.2934999465942386,
                1.3497999906539918
            ],
            "min": [
                -1.3493999242782593,
                -1.2934999465942386,
                -1.3497999906539918
            ],
            "type": "VEC3"
        },
        {
            "bufferView": 1,
            "byteOffset": 583992,
            "componentType": 5126,
            "count": 7602,
            "max": [
                77.82149505615235,
                -10.198199272155762,
                18.05780029296875
            ],
            "min": [
                45.7765998840332,
                -43.38139724731445,
                -63.24489974975586
            ],
            "type": "VEC3"
        },
        {
            "bufferView": 0,
            "byteOffset": 187566,
            "componentType": 5123,
            "count": 38928,
            "max": [
                8199
            ],
            "min": [
                0
            ],
            "type": "SCALAR"
        },
        {
            "bufferView": 1,
            "byteOffset": 675216,
            "componentType": 5126,
            "count": 8200,
            "max": [
                0.19999998807907105,
                1.0,
                0.19999998807907105
            ],
            "min": [
                0.19999998807907105,
                1.0,
                0.19999998807907105
            ],
            "type": "VEC3"
        },
        {
            "bufferView": 1,
            "byteOffset": 773616,
            "componentType": 5126,
            "count": 8200,
            "max": [
                1.3492000102996829,
                1.3460999727249146,
                1.285599946975708
            ],
            "min": [
                -1.3492000102996829,
                -1.3460999727249146,
                -1.285599946975708
            ],
            "type": "VEC3"
        },
        {
            "bufferView": 1,
            "byteOffset": 872016,
            "componentType": 5126,
            "count": 8200,
            "max": [
                92.3322982788086,
                -2.4208998680114748,
                -14.691899299621582
            ],
            "min": [
                46.59439849853516,
                -37.61819839477539,
                -67.93450164794922
            ],
            "type": "VEC3"
        },
        {
            "bufferView": 0,
            "byteOffset": 265422,
            "componentType": 5123,
            "count": 39561,
            "max": [
                7595
            ],
            "min": [
                0
            ],
            "type": "SCALAR"
        },
        {
            "bufferView": 1,
            "byteOffset": 970416,
            "componentType": 5126,
            "count": 7596,
            "max": [
                0.19999998807907105,
                1.0,
                0.19999998807907105
            ],
            "min": [
                0.19999998807907105,
                1.0,
                0.19999998807907105
            ],
            "type": "VEC3"
        },
        {
            "bufferView": 1,
            "byteOffset": 1061568,
            "componentType": 5126,
            "count": 7596,
            "max": [
                1.2742999792099,
                1.3381999731063846,
                1.326799988746643
            ],
            "min": [
                -1.2742999792099,
                -1.3381999731063846,
                -1.326799988746643
            ],
            "type": "VEC3"
        },
        {
            "bufferView": 1,
            "byteOffset": 1152720,
            "componentType": 5126,
            "count": 7596,
            "max": [
                87.5387954711914,
                -2.248199939727783,
                49.27140045166016
            ],
            "min": [
                23.84280014038086,
                -45.875,
                -68.03829956054688
            ],
            "type": "VEC3"
        },
        {
            "bufferView": 0,
            "byteOffset": 344544,
            "componentType": 5123,
            "count": 40152,
            "max": [
                7762
            ],
            "min": [
                0
            ],
            "type": "SCALAR"
        },
        {
            "bufferView": 1,
            "byteOffset": 1243872,
            "componentType": 5126,
            "count": 7763,
            "max": [
                0.19999998807907105,
                1.0,
                0.19999998807907105
            ],
            "min": [
                0.19999998807907105,
                1.0,
                0.19999998807907105
            ],
            "type": "VEC3"
        },
        {
            "bufferView": 1,
            "byteOffset": 1337028,
            "componentType": 5126,
            "count": 7763,
            "max": [
                1.3026000261306766,
                1.3487999439239505,
                1.216499924659729
            ],
            "min": [
                -1.3026000261306766,
                -1.3487999439239505,
                -1.216499924659729
            ],
            "type": "VEC3"
        },
        {
            "bufferView": 1,
            "byteOffset": 1430184,
            "componentType": 5126,
            "count": 7763,
            "max": [
                71.75389862060547,
                -2.6442999839782717,
                41.09709930419922
            ],
            "min": [
                24.02069854736328,
                -47.4578971862793,
                -27.1747989654541
            ],
            "type": "VEC3"
        },
        {
            "bufferView": 0,
            "byteOffset": 424848,
            "componentType": 5123,
            "count": 40374,
            "max": [
                8662
            ],
            "min": [
                0
            ],
            "type": "SCALAR"
        },
        {
            "bufferView": 1,
            "byteOffset": 1523340,
            "componentType": 5126,
            "count": 8663,
            "max": [
                0.19999998807907105,
                1.0,
                0.19999998807907105
            ],
            "min": [
                0.19999998807907105,
                1.0,
                0.19999998807907105
            ],
            "type": "VEC3"
        },
        {
            "bufferView": 1,
            "byteOffset": 1627296,
            "componentType": 5126,
            "count": 8663,
            "max": [
                1.3026000261306766,
                1.3489999771118165,
                1.3496999740600589
            ],
            "min": [
                -1.298099994659424,
                -1.3489999771118165,
                -1.3496999740600589
            ],
            "type": "VEC3"
        },
        {
            "bufferView": 1,
            "byteOffset": 1731252,
            "componentType": 5126,
            "count": 8663,
            "max": [
                77.5271987915039,
                -1.2767999172210694,
                56.91619873046875
            ],
            "min": [
                38.047698974609378,
                -34.02909851074219,
                -23.83289909362793
            ],
            "type": "VEC3"
        },
        {
            "bufferView": 0,
            "byteOffset": 505596,
            "componentType": 5123,
            "count": 41646,
            "max": [
                8402
            ],
            "min": [
                0
            ],
            "type": "SCALAR"
        },
        {
            "bufferView": 1,
            "byteOffset": 1835208,
            "componentType": 5126,
            "count": 8403,
            "max": [
                0.19999998807907105,
                1.0,
                0.19999998807907105
            ],
            "min": [
                0.19999998807907105,
                1.0,
                0.19999998807907105
            ],
            "type": "VEC3"
        },
        {
            "bufferView": 1,
            "byteOffset": 1936044,
            "componentType": 5126,
            "count": 8403,
            "max": [
                1.3495999574661258,
                1.3489999771118165,
                1.347000002861023
            ],
            "min": [
                -1.3495999574661258,
                -1.346400022506714,
                -1.347000002861023
            ],
            "type": "VEC3"
        },
        {
            "bufferView": 1,
            "byteOffset": 2036880,
            "componentType": 5126,
            "count": 8403,
            "max": [
                78.9229965209961,
                12.556699752807618,
                61.98199844360352
            ],
            "min": [
                35.26289749145508,
                -29.657798767089845,
                8.88700008392334
            ],
            "type": "VEC3"
        }
    ],
    "materials": [
        {
            "pbrMetallicRoughness": {
                "metallicFactor": 0.0
            },
            "name": "default-effect"
        },
        {
            "pbrMetallicRoughness": {
                "metallicFactor": 0.0
            },
            "name": "default-effect"
        },
        {
            "pbrMetallicRoughness": {
                "metallicFactor": 0.0
            },
            "name": "default-effect"
        },
        {
            "pbrMetallicRoughness": {
                "metallicFactor": 0.0
            },
            "name": "default-effect"
        },
        {
            "pbrMetallicRoughness": {
                "metallicFactor": 0.0
            },
            "name": "default-effect"
        },
        {
            "pbrMetallicRoughness": {
                "metallicFactor": 0.0
            },
            "name": "default-effect"
        },
        {
            "pbrMetallicRoughness": {
                "metallicFactor": 0.0
            },
            "name": "default-effect"
        },
        {
            "pbrMetallicRoughness": {
                "metallicFactor": 0.0
            },
            "name": "default-effect"
        }
    ],
    "bufferViews": [
        {
            "buffer": 0,
            "byteOffset": 2137716,
            "byteLength": 588888,
            "target": 34963
        },
        {
            "buffer": 0,
            "byteOffset": 0,
            "byteLength": 2137716,
            "byteStride": 12,
            "target": 34962
        }
    ],
    "buffers": [
        {
            "byteLength": 2726604,
            "uri": "data:application/octet-stream;base64,"
        }
    ]
}
